<?xml version="1.0" encoding="UTF-8"?><svg id="Layer_1" xmlns="http://www.w3.org/2000/svg" viewBox="0 0 159.27 157.45"><defs><style>.cls-1{fill:#42bfff;}</style></defs><g id="_909__Internet__Marketing__Media__Network__Seo"><g><path class="cls-1" d="M109.4,78.72c0,16.26-13.58,29.68-30.03,29.68-1.83,0-3.4,1.55-3.4,3.35s1.57,3.36,3.4,3.36c20.1,0,36.55-16.26,36.55-36.14,0-1.81-1.57-3.36-3.4-3.36-1.83-.26-3.13,1.29-3.13,3.1Z"/><path class="cls-1" d="M82.77,45.94c0-1.81-1.57-3.35-3.39-3.35-20.11,0-36.55,16.26-36.55,36.14,0,1.81,1.57,3.35,3.39,3.35s3.4-1.55,3.4-3.35c-.26-16.26,13.32-29.68,29.77-29.68,1.83,0,3.39-1.29,3.39-3.1Z"/><path class="cls-1" d="M96.61,95.24v-8.26c0-6.2-3.39-11.62-8.35-14.45,1.83-2.07,2.61-4.65,2.61-7.48,0-6.45-5.22-11.62-11.75-11.62s-11.75,5.16-11.75,11.62c0,2.84,1.04,5.42,2.61,7.48-4.96,3.1-8.36,8.26-8.36,14.45v8.26c0,1.81,1.57,3.36,3.39,3.36h27.68c2.35-.26,3.91-1.55,3.91-3.36Zm-22.19-30.2c0-2.84,2.35-4.91,4.96-4.91s4.96,2.32,4.96,4.91c0,2.84-2.35,4.9-4.96,4.9s-4.96-2.32-4.96-4.9Zm15.41,26.84h-21.15v-4.9c0-5.68,4.7-10.32,10.44-10.32s10.45,4.65,10.45,10.32v4.9h.26Z"/><path class="cls-1" d="M149.35,68.92c-4.44,0-8.09,2.84-9.4,6.45h-7.31c-.78-12.13-5.74-22.97-13.31-31.49l5.22-5.16c3.66,1.81,8.36,1.03,11.49-1.81,3.92-3.87,3.92-10.07,0-13.94-3.92-3.87-10.18-3.87-14.1,0-3.13,3.1-3.65,7.48-1.83,11.36l-5.22,5.16c-8.62-7.48-19.58-12.39-31.85-13.16v-7.23c3.92-1.29,6.53-4.9,6.53-9.29,0-5.42-4.44-9.81-9.92-9.81s-9.92,4.39-9.92,9.81c0,4.39,2.87,8,6.53,9.29v7.23c-12.27,.77-23.24,5.68-31.86,13.16l-5.22-5.16c1.83-3.61,1.05-8.26-1.83-11.36-3.92-3.87-10.18-3.87-14.1,0-3.92,3.87-3.92,10.07,0,13.94h0c3.13,3.1,7.57,3.61,11.49,1.81l5.22,5.16c-7.57,8.52-12.53,19.36-13.32,31.49h-7.31c-1.31-3.87-4.96-6.45-9.4-6.45-5.48,0-9.92,4.39-9.92,9.81s4.44,9.81,9.92,9.81c4.44,0,8.09-2.84,9.4-6.45h7.31c.78,12.13,5.74,22.97,13.32,31.49l-5.22,5.16c-3.65-1.81-8.35-1.03-11.49,1.81-3.92,3.87-3.92,10.07,0,13.94,3.91,3.87,10.18,3.87,14.1,0,3.13-3.1,3.66-7.48,1.83-11.36l5.22-5.16c8.62,7.48,19.58,12.39,31.86,13.16v7.23c-3.92,1.29-6.53,4.9-6.53,9.29,0,5.42,4.44,9.81,9.92,9.81s9.92-4.39,9.92-9.81c0-4.39-2.87-8-6.53-9.29v-7.23c12.27-.77,23.24-5.68,31.85-13.16l5.22,5.16c-1.83,3.61-1.04,8.26,1.83,11.36,3.92,3.87,10.18,3.87,14.1,0,3.92-3.87,3.92-10.07,0-13.94-3.13-3.1-7.57-3.61-11.49-1.81l-5.22-5.16c7.57-8.52,12.53-19.36,13.31-31.49h7.31c1.31,3.87,4.96,6.45,9.4,6.45,5.48,0,9.92-4.39,9.92-9.81s-4.44-9.81-9.92-9.81Zm-20.63-42.33c.78,0,1.83,.26,2.35,1.03,1.31,1.29,1.31,3.35,0,4.65-1.31,1.29-3.4,1.29-4.7,0-.52-.52-1.04-1.55-1.04-2.32,0-1.81,1.57-3.36,3.4-3.36ZM79.38,6.45c1.83,0,3.39,1.55,3.39,3.35s-1.57,3.36-3.39,3.36-3.4-1.55-3.4-3.36c0-2.06,1.57-3.35,3.4-3.35ZM27.68,32.26c-1.31-1.29-1.31-3.35,0-4.65,1.3-1.29,3.39-1.29,4.7,0,1.31,1.29,1.31,3.35,0,4.65h0c-1.31,1.29-3.4,1.29-4.7,0ZM9.4,82.08c-1.83,0-3.39-1.55-3.39-3.35s1.57-3.35,3.39-3.35,3.4,1.55,3.4,3.35-1.57,3.35-3.4,3.35Zm22.98,47.75c-1.31,1.29-3.4,1.29-4.7,0-1.31-1.29-1.31-3.35,0-4.65,1.3-1.29,3.39-1.29,4.7,0,1.31,1.29,1.31,3.35,0,4.65Zm47,21.17c-1.83,0-3.4-1.55-3.4-3.35s1.57-3.36,3.4-3.36,3.39,1.55,3.39,3.36c0,2.06-1.57,3.35-3.39,3.35Zm52.74-23.49c0,1.81-1.57,3.36-3.39,3.36s-3.4-1.55-3.4-3.36,1.57-3.35,3.4-3.35,3.39,1.55,3.39,3.35Zm-52.74-2.84c-25.59,0-46.48-20.65-46.48-45.94s20.89-45.94,46.48-45.94,46.48,20.65,46.48,45.94-20.89,45.94-46.48,45.94Zm69.97-42.59c-1.83,0-3.4-1.55-3.4-3.35s1.57-3.35,3.4-3.35,3.4,1.55,3.4,3.35c-.26,1.81-1.57,3.35-3.4,3.35Z"/></g></g></svg>