<?xml version="1.0" encoding="UTF-8"?><svg id="Layer_1" xmlns="http://www.w3.org/2000/svg" viewBox="0 0 234.54 233.93"><defs><style>.cls-1{fill:#0e63ff;}.cls-2{fill:none;}</style></defs><g id="_91__Tube__Flask__Lab__Science"><g><g><path class="cls-2" d="M190.47,5.28c6.91,0,12.59,5.69,12.59,12.59s-5.68,12.59-12.59,12.59-12.59-5.28-12.59-12.59,5.68-12.59,12.59-12.59Z"/><path class="cls-2" d="M134.83,25.59c4.06,0,7.72,3.25,7.72,7.72,0,4.06-3.25,7.72-7.72,7.72s-7.71-3.25-7.71-7.72,3.25-7.72,7.71-7.72Z"/><path class="cls-2" d="M103.56,32.9c1.62,1.62,2.84,4.47,2.84,6.9,0,5.69-4.46,9.75-9.74,9.75H51.98c-2.84,0-5.28-1.22-6.9-2.84-1.62-1.62-2.84-4.47-2.84-6.9,0-5.69,4.47-9.75,9.75-9.75h44.68c2.84,0,5.28,1.22,6.9,2.84Z"/><path class="cls-2" d="M138.9,131.99l-15.03,29.65-22.75,44.67-10.56,20.31c-5.28,1.22-10.56,1.62-15.84,1.62-38.18,0-69.45-31.27-69.45-69.45,0-30.46,19.5-56.05,46.71-65.79V49.95h44.68v43.05c19.09,6.5,34.52,20.71,42.24,38.99Z"/><path class="cls-2" d="M179.1,104.37v26.4l49.55,97.47H89.76l.81-1.62,10.56-20.31,22.75-44.67,15.03-29.65,.4-.81V59.7h39.8v44.67h0Zm4.87,84.47c0-1.22-.41-2.84-1.62-3.65-.81-.81-2.44-1.62-3.66-1.62s-2.84,.41-3.65,1.62c-.81,.81-1.62,2.44-1.62,3.65s.41,2.84,1.62,3.66c.81,.81,2.44,1.62,3.65,1.62s2.84-.41,3.66-1.62c1.22-.81,1.62-2.03,1.62-3.66Zm-14.62,19.9c0-1.22-.41-2.84-1.62-3.65-.81-.81-2.44-1.62-3.65-1.62s-2.84,.4-3.65,1.62c-.81,.81-1.62,2.44-1.62,3.65s.41,2.84,1.62,3.65c.81,.81,2.44,1.62,3.65,1.62s2.84-.41,3.65-1.62c.81-1.22,1.62-2.44,1.62-3.65Zm-5.28-34.52c0-1.22-.41-2.84-1.62-3.66-.81-.81-2.44-1.62-3.65-1.62s-2.84,.41-3.66,1.62c-.81,1.22-1.62,2.44-1.62,3.66s.41,2.84,1.62,3.65c.81,.81,2.44,1.62,3.66,1.62s2.84-.41,3.65-1.62c1.22-1.22,1.62-2.44,1.62-3.65Zm-4.87-19.9c0-1.22-.41-2.84-1.62-3.65-.81-.81-2.44-1.62-3.65-1.62s-2.84,.41-3.66,1.62c-.81,.81-1.62,2.44-1.62,3.65s.41,2.84,1.62,3.65c.81,.81,2.44,1.62,3.66,1.62s2.84-.41,3.65-1.62c1.22-1.22,1.62-2.44,1.62-3.65Zm-19.9,39.39c0-1.22-.4-2.84-1.62-3.65-.81-.81-2.44-1.62-3.65-1.62s-2.84,.41-3.65,1.62c-.81,.81-1.62,2.44-1.62,3.65s.4,2.84,1.62,3.65c.81,.81,2.44,1.62,3.65,1.62s2.84-.41,3.65-1.62c.81-1.22,1.62-2.03,1.62-3.65Z"/><path class="cls-1" d="M182.76,185.19c.81,.81,1.62,2.44,1.62,3.65s-.41,2.84-1.62,3.66c-.81,.81-2.44,1.62-3.65,1.62s-2.84-.41-3.65-1.62c-.81-.81-1.62-2.44-1.62-3.66s.4-2.84,1.62-3.65c.81-.81,2.44-1.62,3.65-1.62,1.22,.41,2.44,.81,3.65,1.62Z"/><path class="cls-1" d="M167.73,205.09c.81,.81,1.62,2.44,1.62,3.65s-.41,2.84-1.62,3.65c-1.22,.81-2.44,1.62-3.65,1.62s-2.84-.41-3.65-1.62c-.81-.81-1.62-2.44-1.62-3.65s.41-2.84,1.62-3.65c.81-.81,2.44-1.62,3.65-1.62s2.84,.81,3.65,1.62Z"/><path class="cls-1" d="M162.86,170.57c.81,.81,1.62,2.44,1.62,3.66s-.41,2.84-1.62,3.65c-.81,.81-2.44,1.62-3.65,1.62s-2.84-.41-3.65-1.62c-.81-.81-1.62-2.44-1.62-3.65s.41-2.84,1.62-3.66c1.22-.81,2.43-1.62,3.65-1.62s2.44,.41,3.65,1.62Z"/><path class="cls-1" d="M157.58,150.67c.81,.81,1.62,2.44,1.62,3.65s-.41,2.84-1.62,3.65c-.81,.81-2.44,1.62-3.65,1.62s-2.84-.41-3.66-1.62c-.81-.81-1.62-2.44-1.62-3.65s.41-2.84,1.62-3.65c.81-.81,2.44-1.62,3.66-1.62,1.62,0,2.84,.41,3.65,1.62Z"/><path class="cls-1" d="M138.08,190.47c.81,.81,1.62,2.44,1.62,3.66s-.41,2.84-1.62,3.65c-1.22,.81-2.44,1.62-3.65,1.62s-2.84-.41-3.65-1.62c-.81-.81-1.62-2.44-1.62-3.65s.41-2.84,1.62-3.66c.81-.81,2.44-1.62,3.65-1.62s2.44,.41,3.65,1.62Z"/></g><g><path class="cls-1" d="M96.66,55.23c-2.84,0-5.28-2.44-5.28-5.28s2.44-5.28,5.28-5.28,4.87-2.03,4.87-4.87c0-1.22-.41-2.44-1.22-3.25-.81-.81-2.03-1.62-3.25-1.62H51.98c-2.84,0-4.87,2.03-4.87,4.87,0,1.22,.41,2.44,1.62,3.25,.81,.81,2.03,1.22,3.25,1.22,2.84,0,5.28,2.44,5.28,5.28s-2.44,5.28-5.28,5.28c-4.06,0-7.72-1.62-10.56-4.47-2.84-2.84-4.47-6.5-4.47-10.56,0-8.12,6.9-15.03,15.03-15.03h44.68c4.06,0,7.71,1.62,10.56,4.47,2.84,2.84,4.46,6.5,4.46,10.56,0,8.53-6.9,15.43-15.02,15.43Z"/><path class="cls-1" d="M89.76,233.93H5.28c-2.84,0-5.28-2.44-5.28-5.28s2.44-5.28,5.28-5.28H89.76c2.84,0,5.28,2.44,5.28,5.28-.41,2.84-2.44,5.28-5.28,5.28Z"/><path class="cls-1" d="M74.73,233.93C33.71,233.93,0,200.63,0,159.2c0-30.46,18.68-57.67,46.71-69.04V49.95c0-2.84,2.44-5.28,5.28-5.28h44.68c2.84,0,5.28,2.44,5.28,5.28v39.8c18.68,7.31,33.71,21.93,41.83,40.61,1.22,2.44,0,5.68-2.84,6.5-2.44,1.22-5.68,0-6.5-2.84-7.31-17.06-21.53-30.46-38.99-36.15-2.03-.81-3.65-2.44-3.65-4.87V54.83H57.26v38.58c0,2.03-1.22,4.06-3.25,4.87-25.99,8.94-43.05,33.3-43.05,60.92,0,35.33,28.83,64.57,64.57,64.57,4.87,0,9.75-.41,14.62-1.62,2.84-.81,5.28,1.22,6.09,3.65,.81,2.84-1.22,5.28-3.65,6.09-6.5,1.22-12.18,2.03-17.87,2.03Z"/><path class="cls-1" d="M28.43,167.73c-2.84,0-5.28-2.44-5.28-5.28,0-11.78,3.65-22.74,10.15-32.49,6.5-9.34,15.43-16.65,25.99-20.71,2.44-1.22,5.69,.41,6.5,2.84,1.22,2.44-.41,5.69-2.84,6.5-17.87,7.31-29.65,24.37-29.65,43.86,0,2.84-2.03,5.28-4.87,5.28Z"/><path class="cls-1" d="M228.65,233.93H89.76c-1.62,0-3.25-.81-4.47-2.44-.81-1.62-.81-3.25,0-4.87l.81-1.62,48.33-94.63V59.7c0-2.84,2.44-5.28,5.28-5.28h39.8c2.84,0,5.28,2.44,5.28,5.28v69.85l49.14,96.25c.81,1.62,.81,3.25,0,4.87-2.03,2.03-3.65,3.25-5.28,3.25Zm-130.77-10.15h122.25l-45.49-90.16c-.41-.81-.41-1.62-.41-2.44V64.98h-29.65v66.2c0,.81,0,1.62-.41,2.44l-.41,.81-45.9,89.35Z"/><path class="cls-1" d="M179.1,80.01h-15.03c-2.84,0-5.28-2.44-5.28-5.28s2.44-5.28,5.28-5.28h15.03c2.84,0,5.28,2.44,5.28,5.28s-2.44,5.28-5.28,5.28Z"/><path class="cls-1" d="M179.1,94.63h-15.03c-2.84,0-5.28-2.44-5.28-5.28s2.44-5.28,5.28-5.28h15.03c2.84,0,5.28,2.44,5.28,5.28s-2.44,5.28-5.28,5.28Z"/><path class="cls-1" d="M179.1,109.65h-15.03c-2.84,0-5.28-2.44-5.28-5.28s2.44-5.28,5.28-5.28h15.03c2.84,0,5.28,2.44,5.28,5.28s-2.44,5.28-5.28,5.28Z"/><path class="cls-1" d="M119.4,169.35h-49.55c-2.84,0-5.28-2.44-5.28-5.28s2.44-5.28,5.28-5.28h49.55c2.84,0,5.28,2.44,5.28,5.28s-2.44,5.28-5.28,5.28Z"/><path class="cls-1" d="M134.83,45.89c-6.9,0-12.59-5.69-12.59-12.59s5.68-12.59,12.59-12.59,12.59,5.69,12.59,12.59-5.69,12.59-12.59,12.59Zm0-15.03c-1.22,0-2.44,1.22-2.44,2.44s.81,2.44,2.44,2.44,2.44-1.22,2.44-2.44c0-1.62-1.22-2.44-2.44-2.44Z"/><path class="cls-1" d="M190.47,35.74c-9.74,0-17.87-8.12-17.87-17.87S180.73,0,190.47,0s17.87,8.12,17.87,17.87-8.12,17.87-17.87,17.87Zm0-25.18c-4.06,0-7.71,3.25-7.71,7.72,0,4.06,3.25,7.72,7.71,7.72,4.06,0,7.72-3.25,7.72-7.72s-3.25-7.72-7.72-7.72Z"/></g></g></g></svg>