<?xml version="1.0" encoding="UTF-8"?><svg id="Layer_1" xmlns="http://www.w3.org/2000/svg" viewBox="0 0 284.39 291.04"><defs><style>.cls-1{fill:#f72a75;}.cls-2{fill:none;}</style></defs><g id="_97__Biology__Plant__Science__Sun"><g><g><path class="cls-2" d="M22.47,80.07c9.6,0,17.33,8.74,15.59,18.63-1.14,6.48-6.33,11.66-12.8,12.8-9.88,1.73-18.62-5.99-18.62-15.59,0-8.68,6.64-15.84,15.84-15.84Z"/><path class="cls-2" d="M198.19,207.77c7.15,0,12.77,5.62,12.77,12.77s-5.62,12.77-12.77,12.77-12.77-5.62-12.77-12.77,5.62-12.77,12.77-12.77Z"/><path class="cls-2" d="M159.88,258.85c7.15,0,12.77,5.62,12.77,12.77,0,3.57-1.53,6.64-3.57,9.19-2.04,2.56-5.62,3.58-9.2,3.58H25.54c-7.15,0-12.77-5.62-12.77-12.77,0-3.58,1.53-6.64,3.57-9.2,2.04-2.56,5.62-3.58,9.2-3.58H159.88Z"/><path class="cls-2" d="M61.81,193.47c-6.64,9.19-19.41,11.75-29.63,5.62-5.11-2.55-8.68-7.66-10.73-12.77-4.09-13.28,3.57-18.9-13.79-26.56,12.26-.51,29.12-10.22,46.99-.51,11.24,6.13,15.33,20.43,8.69,31.67-.51,1.02-1.02,2.04-1.53,2.56Z"/><path class="cls-2" d="M109.31,177.63c-1.53-1.53-3.07-2.55-4.6-4.08-12.26-14.3-10.22-36.27,4.09-48.53,24.01-19.92,52.1-10.22,69.47-12.26-15.84,11.24-5.11,48.02-25.54,64.87-12.26,10.73-30.65,10.22-43.42,0Z"/><path class="cls-2" d="M239.57,22.86c12.26,0,21.97,9.71,21.97,21.97s-9.7,21.97-21.97,21.97-21.96-9.7-21.96-21.97,9.7-21.97,21.96-21.97Z"/></g><g><path class="cls-1" d="M131.28,191.94c-9.7,0-18.9-3.57-26.05-9.2-2.04-1.53-3.57-3.07-5.11-5.11h0c-7.15-8.17-10.21-18.9-9.19-29.62,1.02-10.73,6.13-20.94,14.3-27.59,15.33-12.77,31.67-14.3,44.44-14.3,4.6,0,8.68,0,13.28,.51,3.57,0,7.15,.51,10.22,.51,2.04,0,4.08,0,5.62-.51,3.07-.51,5.62,1.53,6.64,4.09,1.02,2.56,0,5.62-2.55,7.66-5.11,3.58-6.64,13.28-8.17,24.01-2.04,14.3-4.09,30.14-16.86,40.87-7.66,5.11-16.86,8.68-26.56,8.68Zm-21.45-22.47c1.02,1.53,2.55,2.55,3.57,3.57,5.11,4.09,11.24,6.64,17.88,6.64s12.77-2.55,17.88-6.64h0c8.68-7.15,10.73-20.43,12.26-32.69,1.02-7.15,2.04-14.3,4.6-20.43h-4.6c-4.09,0-8.17-.51-12.26-.51-10.22,0-24.01,1.53-36.27,11.24-11.24,8.68-12.77,27.07-3.07,38.82Z"/><path class="cls-1" d="M95.01,260.9c-3.07,0-5.62-2.04-6.13-5.11-1.02-4.08-1.53-8.17-1.53-12.26-2.04-22.47,3.58-45.97,16.86-68.96,4.09-7.15,8.69-14.3,14.3-20.94,10.22-13.28,18.9-20.94,19.41-20.94,2.56-2.55,6.64-2.04,9.2,.51,2.55,2.56,2.04,6.64-.51,9.2,0,0-8.17,7.15-17.37,19.41-5.11,6.13-9.2,12.77-13.28,19.41-11.75,20.94-16.86,41.38-15.32,61.3,.51,3.57,1.02,7.15,1.53,10.73,.51,3.57-1.53,6.64-5.11,7.66-1.53-.51-2.04,0-2.04,0Z"/><path class="cls-1" d="M43.93,208.8h0c-5.11,0-10.21-1.53-14.81-4.09-6.13-3.57-11.24-9.2-13.79-16.35h0c-1.53-5.11-1.53-9.2-2.04-12.26,0-3.07,0-4.6-1.02-5.62-1.02-1.53-3.57-3.58-7.66-5.11-2.55-1.02-4.09-4.09-3.57-7.15,.51-3.07,3.07-5.11,6.13-5.11s6.13-1.02,10.22-2.04c5.62-1.53,12.26-3.06,19.41-3.06,7.66,0,14.3,1.53,20.94,5.11,6.64,3.58,11.75,10.22,13.79,17.37,2.04,7.66,1.02,15.84-3.06,22.99-.51,1.02-1.02,2.04-2.04,3.07-5.11,8.17-13.79,12.26-22.48,12.26Zm-16.35-24.01c1.53,3.58,4.09,7.15,7.66,9.2h0c2.56,1.53,5.62,2.56,8.17,2.56,5.11,0,9.7-2.56,12.77-6.64,.51-.51,1.02-1.02,1.02-1.53h0c2.55-4.09,3.06-8.69,1.53-13.28-1.02-4.09-4.09-7.66-7.66-9.71-4.6-2.55-9.2-3.57-14.81-3.57-4.6,0-9.71,1.02-14.3,2.04,2.55,3.57,3.06,7.66,3.06,12.26,1.53,2.56,1.53,5.11,2.56,8.68Z"/><path class="cls-1" d="M95.01,260.9c-3.58,0-6.13-2.55-6.13-6.13s-.51-7.15-1.53-10.22c-4.6-20.43-18.39-36.27-29.63-45.97-5.62-5.11-9.71-7.66-9.71-7.66-3.07-2.04-3.57-6.13-2.04-8.68,2.04-3.07,6.13-3.57,8.68-2.04,0,0,5.11,3.06,11.24,8.68,12.26,10.73,28.1,28.61,33.2,52.61,1.02,4.09,1.53,8.17,2.04,12.26,.51,3.57-2.55,6.64-6.13,7.15h0Z"/><path class="cls-1" d="M122.6,163.84c-3.58,0-6.64-3.07-6.64-6.13v-24.01c0-3.57,3.07-6.64,6.64-6.64s6.64,3.07,6.64,6.64v24.01c0,3.07-3.07,6.13-6.64,6.13Z"/><path class="cls-1" d="M146.6,155.67h-15.84c-3.57,0-6.64-3.07-6.64-6.64s3.07-6.64,6.64-6.64h15.84c3.58,0,6.64,3.07,6.64,6.64s-3.07,6.64-6.64,6.64Z"/><path class="cls-1" d="M159.88,291.04H25.54c-10.73,0-19.41-8.68-19.41-19.41,0-5.11,2.04-9.71,5.62-13.79,3.57-3.57,8.68-5.62,13.79-5.62H159.88c10.73,0,19.41,8.68,19.41,19.41,0,5.11-2.04,9.71-5.62,13.79-4.09,3.57-8.68,5.62-13.79,5.62Zm-134.34-25.54c-1.53,0-3.07,.51-4.6,2.04-1.02,1.02-2.04,3.06-2.04,4.6,0,3.57,3.07,6.64,6.64,6.64H159.37c1.53,0,3.06-.51,4.6-2.04,1.02-1.02,2.04-3.06,2.04-4.6,0-3.57-3.07-6.64-6.64-6.64H25.54Z"/><path class="cls-1" d="M198.19,239.95c-10.73,0-19.41-8.68-19.41-19.41s8.68-19.41,19.41-19.41,18.9,8.68,18.9,19.41-8.68,19.41-18.9,19.41Zm0-25.54c-3.57,0-6.64,3.07-6.64,6.64s3.07,6.64,6.64,6.64,6.64-3.07,6.64-6.64-3.57-6.64-6.64-6.64Z"/><path class="cls-1" d="M22.47,118.38c-12.26,0-22.47-10.22-22.47-22.48s10.21-22.47,22.47-22.47,22.47,10.22,22.47,22.47-10.21,22.48-22.47,22.48Zm0-31.67c-5.11,0-9.7,4.09-9.7,9.71,0,5.11,4.09,9.7,9.7,9.7,5.11,0,9.7-4.09,9.7-9.7s-4.6-9.71-9.7-9.71Z"/><path class="cls-1" d="M239.57,73.43c-15.84,0-28.61-12.77-28.61-28.61s12.77-28.61,28.61-28.61,28.61,12.77,28.61,28.61-13.28,28.61-28.61,28.61Zm0-43.93c-8.68,0-15.84,7.15-15.84,15.84s7.15,15.84,15.84,15.84,15.84-7.15,15.84-15.84-7.15-15.84-15.84-15.84Z"/><path class="cls-1" d="M239.57,105.61c-3.57,0-6.64-3.07-6.64-6.64v-10.22c0-3.57,3.07-6.64,6.64-6.64s6.64,3.06,6.64,6.64v10.22c-.51,3.57-3.07,6.64-6.64,6.64Z"/><path class="cls-1" d="M201.26,89.77c-1.53,0-3.07-.51-4.6-2.04-2.56-2.56-2.56-6.64,0-9.2l7.15-7.15c2.55-2.55,6.64-2.55,9.19,0,2.56,2.55,2.56,6.64,0,9.2l-7.66,7.15c-1.02,1.53-2.55,2.04-4.09,2.04Z"/><path class="cls-1" d="M195.64,51.46h-10.22c-3.57,0-6.64-3.06-6.64-6.64s3.07-6.64,6.64-6.64h10.22c3.57,0,6.64,3.07,6.64,6.64-.51,3.57-3.07,6.64-6.64,6.64Z"/><path class="cls-1" d="M208.41,20.31c-1.53,0-3.07-.51-4.6-2.04l-7.15-7.15c-2.56-2.55-2.56-6.64,0-9.2,2.55-2.55,6.64-2.55,9.2,0l7.15,7.15c2.56,2.55,2.56,6.64,0,9.2-1.53,1.53-3.07,2.04-4.6,2.04Z"/><path class="cls-1" d="M277.88,89.77c-1.53,0-3.06-.51-4.6-2.04l-7.15-7.15c-2.55-2.56-2.55-6.64,0-9.2,2.56-2.55,6.64-2.55,9.2,0l7.15,7.15c2.55,2.55,2.55,6.64,0,9.2-1.53,1.53-3.07,2.04-4.6,2.04Z"/></g></g></g></svg>