<?xml version="1.0" encoding="UTF-8"?><svg id="Layer_1" xmlns="http://www.w3.org/2000/svg" viewBox="0 0 395.05 399.68"><defs><style>.cls-1{fill:#70e5c6;}.cls-2{fill:#c2e3f7;}.cls-3{fill:#10d0a1;}.cls-4{fill:#8fead2;}</style></defs><g id="_76__Apple__Food__Science"><g><g><path class="cls-1" d="M158.28,193.31c-4.68-23.45,2.01-49.58,20.1-68.34,99.83-99.83,213.73,146.73,158.79,201.67-8.71,8.71-19.43,14.74-30.15,18.09l-.67,1.34-1.34,1.34c-3.35,10.72-9.38,21.44-18.09,30.15-54.94,54.93-300.83-59.63-201.67-158.79,20.1-20.1,48.91-26.8,74.37-18.76-.67-2.68-1.34-4.69-1.34-6.7Z"/><path class="cls-4" d="M75.2,159.81c6.04,4.02,10.72,8.71,15.41,14.74-4.69,6.03-10.05,10.72-15.41,14.74-8.04,4.69-16.75,7.37-25.46,7.37s-17.42-2.68-25.46-7.37c-6.03-4.02-11.39-8.72-16.08-14.74,4.69-6.03,10.05-11.39,16.08-14.74,7.37-4.69,16.08-7.37,25.46-7.37,9.38-.67,18.09,2.01,25.46,7.37Z"/></g><g><path class="cls-3" d="M242.03,399.68c-31.49,0-71.02-11.4-105.86-30.15-38.18-20.77-65.66-46.9-77.04-73.7-8.72-20.77-12.06-51.59,20.1-83.75,15.41-16.08,36.85-24.12,58.96-24.12,3.35,0,6.7,0,10.05,.67-3.35-25.46,5.36-50.92,23.45-69,17.42-17.42,36.18-26.13,55.61-26.13,22.78,0,45.56,11.39,67,33.5,18.09,18.76,34.84,44.89,46.9,73.7,18.09,43.55,28.81,103.85,1.34,131.32-8.71,8.71-19.43,15.41-30.82,19.43-4.02,12.06-10.72,22.78-19.43,30.82-10.72,11.39-28.14,17.42-50.26,17.42Zm-103.85-194.97c-17.42,0-34.17,6.7-46.9,19.43-20.1,20.1-26.13,42.21-16.75,64.99,9.38,23.45,34.84,46.9,69.01,65.66,32.83,17.42,69.01,28.15,97.82,28.15,18.09,0,31.49-4.02,38.86-12.06,7.37-7.37,12.73-16.75,16.08-26.8,.67-1.34,1.34-2.68,2.01-3.36l2.68-2.68c.67-.67,2.01-1.34,3.35-2.01,10.05-3.36,19.43-9.38,26.8-16.08,17.42-17.42,15.41-63.65-5.36-113.23-20.1-48.24-58.29-97.15-98.49-97.15-15.41,0-30.15,7.37-43.55,20.77-16.07,16.08-22.78,38.19-18.09,60.3,.67,2.01,.67,3.35,1.34,5.36,.67,2.68,0,6.03-2.01,8.04-2.01,2.01-5.36,2.68-8.04,2.01-6.03-.67-12.06-1.34-18.76-1.34Z"/><path class="cls-3" d="M158.28,201.35c-1.34,0-2.68-.67-4.02-1.34,0,0-.67,0-.67-.68-67-40.86-58.29-80.4-58.29-82.41l16.75,4.69h0s-1.34,7.37,4.02,18.76c5.36,10.72,17.42,27.47,46.9,45.56h0c4.02,2.68,5.36,7.37,2.68,11.4-1.34,2.68-4.69,4.02-7.37,4.02Z"/><path class="cls-3" d="M292.96,301.18h-1.34c-4.69-.67-7.37-5.36-6.7-9.38,5.36-29.48-12.06-58.96-12.06-58.96-2.68-4.02-1.34-9.38,2.68-11.39,4.02-2.68,9.38-1.34,11.39,2.68,.67,1.34,20.1,34.84,14.07,70.35-.67,4.02-4.02,6.7-8.04,6.7Z"/><path class="cls-3" d="M49.75,204.7c-10.05,0-20.77-2.68-29.48-8.71-6.7-4.02-13.4-10.05-18.76-17.42-2.01-2.68-2.01-7.37,0-10.05,5.36-6.7,11.39-12.73,18.09-16.75,9.38-6.03,19.43-8.71,30.15-8.71s21.44,3.35,30.15,9.38c6.7,4.02,12.73,10.05,17.42,16.75,2.01,2.68,2.01,7.37,0,10.05-5.36,6.7-11.39,12.73-18.09,16.75-8.71,6.03-19.43,8.71-29.48,8.71Zm-30.82-30.82c2.68,3.35,6.03,6.03,9.38,8.04,6.7,4.02,13.39,6.03,20.77,6.03s14.74-2.01,21.44-6.03c3.35-2.01,6.7-4.69,9.38-7.37-2.68-2.68-6.03-5.36-8.71-7.37-6.7-4.02-14.07-6.7-21.44-6.7s-14.07,2.01-20.77,6.03c-4.02,2.01-6.7,4.69-10.05,7.37Z"/></g></g></g><g id="_88__Search__Bone__Science"><g><g><path class="cls-1" d="M379.71,86.28c3.94,.85,6.89,3.08,8.95,6.27s2.89,6.8,2.04,10.74c-1.69,7.87-9.13,12.69-17,10.99l-48.13-10.33c1.81-4.19,3.29-8.91,4.32-13.72,1.03-4.81,1.63-9.72,1.7-14.28l48.12,10.33Z"/><path class="cls-2" d="M291.21,63.63c2.66-1.72,6.42-1.14,8.31,1.79,1.72,2.66,1.14,6.42-1.78,8.31s-6.42,1.14-8.31-1.78-.87-6.6,1.78-8.31Z"/><path class="cls-2" d="M303.65,96.27c.53-.34,1.41-.15,1.75,.38s.16,1.41-.38,1.75-1.41,.16-1.75-.38-.15-1.41,.38-1.75Z"/><path class="cls-2" d="M208.35,70.1c3.72-2.4,8.53-1.37,10.94,2.35s1.37,8.53-2.35,10.94-8.53,1.37-10.94-2.35c-2.4-3.72-1.37-8.53,2.35-10.94Z"/></g><g><path class="cls-3" d="M307.26,101.85c-2.39,1.55-5.89,.79-7.44-1.6s-.79-5.89,1.6-7.44,5.89-.79,7.44,1.6,.79,5.89-1.6,7.44Zm-4.3-6.64c-1.06,.69-1.44,2.44-.75,3.5s2.44,1.44,3.5,.75,1.44-2.44,.75-3.5-2.17-1.61-3.5-.75Z"/><path class="cls-3" d="M235.41,56c-2.39,1.55-5.89,.79-7.44-1.6s-.79-5.89,1.6-7.44,5.89-.79,7.44,1.6,.79,5.89-1.6,7.44Zm-4.3-6.64c-1.06,.69-1.44,2.44-.75,3.5s2.44,1.44,3.5,.75,1.44-2.44,.75-3.5c-.86-1.33-2.44-1.44-3.5-.75Z"/><path class="cls-3" d="M386.67,115.69c-3.98,2.58-9,3.56-13.81,2.53l-48.13-10.33c-2.19-.47-3.56-2.6-3.09-4.78,.47-2.19,2.6-3.56,4.78-3.09l48.13,10.33c2.62,.56,5.44,.25,7.83-1.29s4-3.72,4.4-6.61c.56-2.63,.25-5.44-1.3-7.83s-3.72-4-6.61-4.39l-48.13-10.33c-2.19-.47-3.56-2.6-3.09-4.78,.47-2.19,2.59-3.56,4.78-3.09l48.12,10.33c4.81,1.03,8.81,3.72,11.56,7.97,2.58,3.99,3.56,9,2.53,13.82-1.03,4.81-3.99,8.98-7.97,11.56Z"/><path class="cls-3" d="M300.86,139.15h0c-17.01,11-37.24,14.66-56.93,10.44-19.69-4.23-36.64-15.87-47.64-32.88-11-17.01-14.66-37.24-10.44-56.93,4.23-19.69,15.87-36.64,32.88-47.64S255.98-2.52,275.66,1.71c17.06,3.66,32.64,13.18,43.59,27.21,10.61,13.49,16.51,30.77,16.27,47.88-.16,5-.58,10.17-1.62,14.99-1.03,4.81-2.6,9.97-4.68,14.33-6.07,13.34-15.88,24.97-28.37,33.04ZM222.86,18.52c-15.15,9.79-25.71,24.92-29.74,42.59-3.85,17.94-.59,35.8,9.38,51.21s25.18,25.54,42.85,29.56c17.94,3.85,35.8,.59,51.21-9.37,11.16-7.22,19.99-17.45,25.17-29.84,1.81-4.19,3.19-8.47,4.13-12.85,.94-4.37,1.44-8.84,1.51-13.41,.28-32.2-22.06-60.34-53.56-67.1-17.67-4.02-35.8-.59-50.94,9.2Z"/><path class="cls-3" d="M219.18,86.84c-5.58,3.61-13.02,2.01-16.62-3.57s-2.01-13.02,3.57-16.62,13.02-2.01,16.62,3.57,2.01,13.02-3.57,16.63Zm-8.59-13.29c-1.86,1.2-2.42,3.83-1.22,5.69s3.83,2.42,5.69,1.22,2.42-3.83,1.22-5.69c-1.37-2.13-3.83-2.42-5.69-1.22Z"/><path class="cls-3" d="M299.8,76.91c-4.52,2.92-10.64,1.61-13.56-2.91s-1.61-10.64,2.91-13.57,10.64-1.6,13.56,2.91,1.61,10.64-2.91,13.56Zm-6.36-9.83c-.8,.52-1.08,1.83-.56,2.63s1.83,1.08,2.63,.56,1.08-1.83,.56-2.62-1.56-1.25-2.62-.57Z"/></g></g></g></svg>