<?xml version="1.0" encoding="UTF-8"?><svg id="Layer_1" xmlns="http://www.w3.org/2000/svg" viewBox="0 0 218.99 211.29"><defs><style>.cls-1{fill:#f72a75;}.cls-2{fill:none;}</style></defs><g id="_80__Atom__Molecule__Science"><g><g><path class="cls-2" d="M91.71,188.18c5.13,0,9.17,4.04,9.17,9.17s-4.04,9.17-9.17,9.17-9.17-4.03-9.17-9.17,4.03-9.17,9.17-9.17Z"/><path class="cls-2" d="M100.88,4.77c5.13,0,9.17,4.03,9.17,9.17s-4.04,9.17-9.17,9.17-9.17-4.04-9.17-9.17,4.03-9.17,9.17-9.17Z"/><path class="cls-2" d="M11.37,133.16c3.67,0,6.97,2.94,6.97,6.97s-2.94,6.97-6.97,6.97-6.97-2.94-6.97-6.97,3.3-6.97,6.97-6.97Z"/><path class="cls-2" d="M95.01,117.39c6.24,0,11.37,5.14,11.37,11.37s-5.13,11.37-11.37,11.37-11.37-5.14-11.37-11.37c.37-6.6,5.14-11.37,11.37-11.37Z"/><path class="cls-2" d="M72.63,81.44c6.24,0,11.37,5.14,11.37,11.37s-5.14,11.37-11.37,11.37-11.37-5.14-11.37-11.37c.37-6.24,5.13-11.37,11.37-11.37Z"/><path class="cls-2" d="M117.39,72.63c8.8,0,15.77,6.97,15.77,15.77s-6.97,15.77-15.77,15.77-15.78-6.97-15.78-15.77c.37-8.8,7.34-15.77,15.78-15.77Zm2.2,15.41c0-1.1-1.1-2.2-2.2-2.2s-2.2,1.1-2.2,2.2,1.1,2.2,2.2,2.2,2.2-.73,2.2-2.2Z"/><path class="cls-2" d="M207.26,106.01c8.44,6.97,8.44,19.81,.37,26.78-6.97,6.24-17.24,5.87-24.21-.37-1.47-1.1-2.2-2.57-3.3-4.03-2.2-3.67-6.24-6.24-10.64-6.6l-6.24-.37c-2.2,10.27-6.97,19.44-13.57,27.15l13.94,16.14c.73,.73,1.83,1.47,2.93,1.47,6.97,1.1,12.11,6.97,11.37,14.3-.37,6.61-5.87,12.11-12.47,12.47-7.7,.37-14.3-5.87-14.3-13.57h0c0-1.1-.37-2.2-1.1-2.93l-13.94-15.78c-9.91,6.6-21.64,10.27-34.48,10.27s-25.31-4.04-35.58-11l-17.24,13.94c-3.3,2.57-5.13,6.6-5.13,10.64v1.47c-.74,8.8-8.07,15.77-16.87,16.51-10.64,.37-19.44-8.44-18.71-19.08,.37-8.07,6.61-15.04,15.04-16.51,1.1,0,1.84-.37,2.94-.37,3.3,0,6.24-1.1,8.8-3.3l19.08-15.41c-8.8-10.64-14.31-24.58-14.31-39.62,0-13.57,4.4-26.04,11.37-36.32l-3.3-3.67c-2.94-3.3-6.97-5.13-11.37-4.77h-1.47c-14.67,0-26.78-12.11-26.78-26.78S20.17,9.54,35.21,9.91c14.31,.37,26.05,11.74,26.41,26.04,0,3.3-.37,6.6-1.47,9.54-1.47,4.77-.74,9.9,2.57,13.57l.37,.37c10.64-8.44,24.21-13.57,38.88-13.57s27.88,5.14,38.52,13.21l15.41-12.47c2.2-1.84,4.04-4.4,4.77-7.34,1.83-6.6,8.07-11.37,15.04-11.37,9.17,0,16.14,7.7,15.77,16.87-.37,7.34-6.24,13.57-13.94,14.67h-2.93c-3.3-.37-6.97,.73-9.54,2.93l-12.47,9.9c7.34,10.27,11.74,37.42,11.74,38.15l8.07,.73c4.03,.37,7.7-1.1,10.64-4.03,.37-.37,.73-.73,1.47-1.1,6.97-5.87,16.51-5.5,22.74,0Zm-74.1-17.97c0-8.8-6.97-15.77-15.77-15.77s-15.78,6.97-15.78,15.77,6.97,15.77,15.78,15.77,15.77-6.97,15.77-15.77Zm-4.4,44.75c0-1.1-1.1-2.2-2.2-2.2s-2.2,1.1-2.2,2.2,1.1,2.2,2.2,2.2c1.1,.37,2.2-.73,2.2-2.2Zm-22.38-4.4c0-6.24-5.13-11.37-11.37-11.37s-11.37,5.13-11.37,11.37,5.14,11.37,11.37,11.37,11.37-5.13,11.37-11.37Zm-22.37-35.58c0-6.24-5.14-11.37-11.37-11.37s-11.37,5.14-11.37,11.37,5.13,11.37,11.37,11.37c6.24-.37,11.37-5.5,11.37-11.37Z"/></g><g><path class="cls-1" d="M25.68,206.89c-6.24,0-12.11-2.57-16.51-6.97-4.4-4.4-6.6-10.64-6.24-16.87,.74-10.27,8.44-19.08,18.71-20.91,1.1-.37,2.57-.37,3.67-.37,2.2,0,4.04-.74,5.87-2.2l15.41-12.47c-8.07-11.37-12.47-24.94-12.47-38.88,0-12.84,3.67-24.94,10.27-35.95l-.37-1.1c-1.83-2.2-4.77-3.3-7.34-3.3h-1.83c-17.24,0-31.55-13.94-31.55-31.55S17.61,4.77,35.21,4.77c8.07,0,15.78,3.3,21.65,9.17,5.87,5.87,9.17,13.21,9.54,21.28,0,3.67-.37,7.34-1.47,11-.73,1.84-.73,4.04,0,5.87,11-7.34,23.84-11.37,37.42-11.37s27.15,4.03,38.52,12.11l12.84-10.27c1.47-1.1,2.57-2.93,3.3-4.77,2.57-8.8,10.64-14.67,19.44-14.67,5.5,0,11.01,2.2,14.67,6.24,4.04,4.03,5.87,9.54,5.5,15.04-.74,9.9-8.07,17.61-17.98,18.71h-3.67c-2.57,0-4.77,.37-6.24,1.83l-9.17,7.34c5.14,9.54,8.44,24.94,9.54,32.65l4.4,.37c2.57,.37,5.14-.73,7.34-2.57,.37-.37,1.1-1.1,1.84-1.47,4.03-2.93,8.8-4.77,13.94-4.77,5.5,0,10.64,1.83,14.67,5.5,4.77,4.4,7.7,10.27,7.7,16.87s-2.57,12.84-7.33,16.88c-4.04,3.67-9.54,5.87-15.04,5.87h0c-5.87,0-11.01-2.2-15.41-5.87-1.47-1.47-2.93-3.3-4.04-5.14-1.47-2.57-4.04-4.03-7.34-4.4l-2.57-.37c-2.2,8.07-5.87,15.41-11,22.38l11.37,13.2c9.17,1.47,16.14,9.54,15.41,19.08-.74,9.17-7.7,16.14-16.87,16.87h-1.1c-9.91,0-17.98-8.07-17.98-17.97h0l-11.37-13.2c-10.27,5.87-21.65,8.8-33.38,8.8-12.47,0-24.58-3.3-35.22-9.9l-14.67,12.11c-2.2,1.83-3.67,4.4-3.67,6.97v1.83c-1.1,11-9.9,20.17-21.28,20.54-1.1,.37-1.47,.37-1.83,.37ZM36.68,59.06c5.5,0,10.64,2.2,13.94,6.6l3.3,3.67c1.47,1.47,1.47,4.03,.37,5.5-6.97,9.9-10.64,21.28-10.64,33.38,0,13.57,4.77,26.41,13.21,36.68,.73,1.1,1.1,2.2,1.1,3.3s-.73,2.2-1.83,2.94l-19.07,15.41c-3.3,2.57-7.34,4.04-11.74,4.04-.74,0-1.47,0-2.2,.37-5.87,1.1-10.64,6.24-11,12.47-.37,3.67,1.1,7.34,3.67,9.9,2.57,2.93,6.6,4.4,10.27,4.04,6.61-.37,12.11-5.5,12.47-12.11v-1.1c0-5.5,2.57-10.64,6.97-13.94l17.24-13.94c1.47-1.1,3.67-1.47,5.5-.37,9.91,6.6,21.28,10.27,33.02,10.27s22.38-3.3,31.91-9.54c1.83-1.1,4.4-.73,5.87,.74l13.94,16.14c1.47,1.83,2.2,3.67,2.2,6.24,0,5.13,4.4,9.17,9.54,8.8,4.4-.37,8.07-4.03,8.43-8.07,.37-4.77-2.93-8.8-7.7-9.54-2.2-.37-4.4-1.47-5.87-3.3l-13.94-16.14c-1.47-1.83-1.47-4.4,0-5.87,6.24-7.34,10.64-15.77,12.47-25.31,.37-2.2,2.57-3.67,4.77-3.67l6.24,.37c5.87,.37,11.37,3.67,14.3,8.8,.73,1.1,1.47,2.2,2.57,2.94,2.57,2.2,5.5,3.67,9.17,3.67,3.3,0,6.6-1.1,8.8-3.3,2.93-2.57,4.4-6.24,4.4-9.9,0-4.03-1.83-7.34-4.77-9.9-2.57-2.2-5.5-3.3-8.8-3.3-2.94,0-5.87,1.1-8.07,2.93-.37,.37-.73,.73-1.1,.73-3.67,3.3-8.07,5.14-12.84,5.14h-1.47l-8.07-.73c-2.2,0-4.04-1.84-4.4-4.04-.37-2.93-4.77-27.14-10.64-35.58-1.47-1.83-1.1-4.77,.73-6.24l12.47-9.9c3.3-2.94,8.07-4.03,12.84-4.03h2.2c5.14-.73,9.54-5.14,9.91-10.27,.37-2.93-.74-6.24-2.93-8.44-2.2-2.2-5.13-3.67-8.07-3.67-5.14,0-9.54,3.3-10.64,8.07-1.1,3.67-3.3,6.97-6.24,9.54l-15.41,12.47c-1.83,1.47-4.03,1.47-5.87,0-10.27-8.07-22.74-12.47-35.95-12.47s-25.68,4.4-35.95,12.47c-1.83,1.47-4.77,1.1-6.24-.73l.37,.37c-4.4-5.14-5.5-11.74-3.3-17.98,.74-2.57,1.1-5.14,1.1-7.7-.37-11.74-10.27-21.28-22.01-21.64h-.37c-12.11,0-22.38,9.9-22.38,22.38s9.91,22.38,22.38,22.38h1.83Z"/><path class="cls-1" d="M117.39,108.58c-11.01,0-20.18-9.17-20.18-20.18s9.17-20.18,20.18-20.18,20.17,9.17,20.17,20.18-8.8,20.18-20.17,20.18Zm0-31.55c-6.24,0-11.01,5.14-11.01,11,0,6.24,5.14,11.01,11.01,11.01,6.24,0,11-5.14,11-11.01,.37-5.87-4.77-11-11-11Z"/><path class="cls-2" d="M117.39,95.01c-3.67,0-6.97-2.94-6.97-6.97,0-3.67,2.94-6.97,6.97-6.97,3.67,0,6.97,2.94,6.97,6.97s-2.94,6.97-6.97,6.97Zm0-9.17c-1.47,0-2.2,1.1-2.2,2.2s1.1,2.2,2.2,2.2c1.47,0,2.2-1.1,2.2-2.2,.37-1.1-.73-2.2-2.2-2.2Z"/><path class="cls-1" d="M126.56,139.76c-3.67,0-6.97-2.94-6.97-6.97,0-3.67,2.94-6.97,6.97-6.97,3.67,0,6.97,2.94,6.97,6.97-.37,4.03-3.3,6.97-6.97,6.97Zm0-9.17c-1.47,0-2.2,1.1-2.2,2.2,0,1.47,1.1,2.2,2.2,2.2,1.47,0,2.2-1.1,2.2-2.2s-1.1-2.2-2.2-2.2Z"/><path class="cls-1" d="M72.63,108.58c-8.8,0-15.77-6.97-15.77-15.77s6.97-15.77,15.77-15.77,15.77,6.97,15.77,15.77-6.97,15.77-15.77,15.77Zm0-22.38c-3.67,0-6.6,2.93-6.6,6.6s2.93,6.6,6.6,6.6,6.6-2.93,6.6-6.6-2.93-6.6-6.6-6.6Z"/><path class="cls-1" d="M95.01,144.16c-8.8,0-15.78-6.97-15.78-15.77s6.97-15.77,15.78-15.77,15.77,6.97,15.77,15.77-6.97,15.77-15.77,15.77Zm0-22.38c-3.67,0-6.61,2.94-6.61,6.6s2.93,6.6,6.61,6.6,6.6-2.93,6.6-6.6-2.93-6.6-6.6-6.6Z"/><path class="cls-1" d="M100.88,27.88c-7.7,0-13.94-6.24-13.94-13.94S93.18,0,100.88,0s13.94,6.24,13.94,13.94-6.24,13.94-13.94,13.94Zm0-18.34c-2.57,0-4.77,2.2-4.77,4.77s2.2,4.77,4.77,4.77,4.77-2.2,4.77-4.77c0-2.93-2.2-4.77-4.77-4.77Z"/><path class="cls-1" d="M91.71,211.29c-7.7,0-13.94-6.24-13.94-13.94s6.24-13.94,13.94-13.94,13.94,6.24,13.94,13.94-6.24,13.94-13.94,13.94Zm0-18.34c-2.57,0-4.77,2.2-4.77,4.77s2.2,4.77,4.77,4.77,4.77-2.2,4.77-4.77-2.2-4.77-4.77-4.77Z"/><path class="cls-1" d="M11.37,151.5c-6.24,0-11.37-5.13-11.37-11.37s5.14-11.37,11.37-11.37,11.37,5.13,11.37,11.37-5.13,11.37-11.37,11.37Zm0-13.57c-1.1,0-2.2,1.1-2.2,2.2s1.1,2.2,2.2,2.2,2.2-1.1,2.2-2.2-.73-2.2-2.2-2.2Z"/></g></g></g></svg>