<?xml version="1.0" encoding="UTF-8"?><svg id="Layer_1" xmlns="http://www.w3.org/2000/svg" viewBox="0 0 268.26 302.18"><defs><style>.cls-1{fill:#0e63ff;}.cls-2{fill:none;}.cls-3{fill:#0b93e2;}</style></defs><g id="_77__Science__Flask__Trees"><g><g><path class="cls-2" d="M32.88,138.3c7.31,0,13.05,5.74,13.05,13.05s-5.74,13.05-13.05,13.05-13.05-5.74-13.05-13.05,5.74-13.05,13.05-13.05Z"/><path class="cls-2" d="M231.72,53.76c8.87,0,16.18,7.3,16.18,16.18s-7.31,16.18-16.18,16.18-16.18-7.3-16.18-16.18,7.31-16.18,16.18-16.18Z"/><path class="cls-2" d="M235.38,203.54c7.31,0,13.05,5.74,13.05,13.05s-6.26,13.04-13.05,13.04-13.05-5.74-13.05-13.04,5.74-13.05,13.05-13.05Z"/><path class="cls-2" d="M110.12,99.16h49.06v64.72l64.19,110.64c4.7,7.83,.52,17.22-7.83,19.83H53.76c-7.83-2.61-12-12-7.83-19.83l64.19-110.64V99.16h0Zm73.07,163.36c0-3.65-3.13-6.78-6.78-6.78h0c-3.65,0-6.26,3.13-6.26,6.78s3.13,6.78,6.78,6.78c3.13-.52,6.26-3.66,6.26-6.78Zm-78.28-26.09c0-3.65-3.13-6.79-6.79-6.79h0c-3.65,0-6.78,3.13-6.78,6.79s3.13,6.78,6.78,6.78c3.65-.52,6.79-3.66,6.79-6.78Z"/><path class="cls-2" d="M105.95,40.71c8.35,4.18,10.96,14.61,6.26,22.44-4.18,7.83-14.61,10.44-22.44,5.74-3.66-2.09-6.26-5.22-7.83-8.87-3.13-9.39,2.61-13.57-9.92-19.31,8.87,0,20.87-7.3,33.92,0Z"/><path class="cls-2" d="M143.52,52.71c-.52-.53-1.56-1.57-2.09-2.09-8.87-10.44-7.3-26.09,3.13-34.45,17.22-14.09,37.06-7.31,50.1-8.87-11.48,7.83-3.65,34.45-18.27,46.45-9.92,7.83-23.49,7.3-32.88-1.04Z"/><path class="cls-3" d="M222.33,145.09c3.65,0,6.79,3.13,6.79,6.79s-3.13,6.78-6.79,6.78-6.78-3.13-6.78-6.78c0-4.18,3.13-6.79,6.78-6.79h0Z"/><path class="cls-3" d="M176.4,255.73c3.65,0,6.78,3.13,6.78,6.78s-3.13,6.78-6.78,6.78-6.79-3.13-6.79-6.78c.52-3.65,3.13-6.78,6.79-6.78h0Z"/><path class="cls-3" d="M98.12,229.63c3.65,0,6.79,3.13,6.79,6.79s-3.13,6.78-6.79,6.78-6.78-3.13-6.78-6.78c.52-3.65,3.13-6.79,6.78-6.79h0Z"/><path class="cls-3" d="M85.07,99.16c3.65,0,6.79,3.13,6.79,6.78s-3.13,6.78-6.79,6.78-6.78-3.13-6.78-6.78,3.13-6.78,6.78-6.78h0Z"/><path class="cls-3" d="M19.83,46.97c3.65,0,6.78,3.13,6.78,6.78s-3.13,6.78-6.78,6.78-6.78-3.13-6.78-6.78c.52-3.65,3.13-6.78,6.78-6.78h0Z"/></g><g><path class="cls-1" d="M160.74,65.76c-7.83,0-15.66-3.13-21.4-8.35-1.05-1.05-2.09-1.57-2.61-2.61h0c-10.96-13.05-9.39-32.88,3.65-43.84C151.87,1.57,164.92,0,173.27,0c3.13,0,6.26,0,9.4,.52,2.61,0,5.22,.53,7.3,.53h3.66c3.13-.53,5.74,1.56,6.78,4.18,1.04,2.61,0,5.74-2.61,7.83-3.13,2.09-4.18,8.87-4.7,15.66-1.56,9.91-3.13,22.44-12.52,30.27-5.74,4.17-12.53,6.78-19.83,6.78Zm-14.09-19.31c.52,.52,1.04,1.04,1.57,1.56,3.65,3.13,7.83,4.7,12.52,4.7,4.18,0,8.35-1.57,11.48-4.18h0c5.74-4.7,6.78-13.57,8.35-22.44,.52-4.18,1.04-8.87,2.61-12.53h-.52c-2.61,0-5.74-.52-8.87-.52-7.83,0-16.7,1.05-24.53,7.83-7.83,6.26-8.87,17.74-2.61,25.57Z"/><path class="cls-1" d="M135.69,105.94c-3.13,0-5.74-2.09-6.26-5.22-.52-3.13-1.04-5.74-1.56-8.87-1.04-14.09,2.09-28.18,9.92-42.28,10.44-18.26,25.05-29.75,25.57-30.27,3.13-2.09,6.78-1.57,9.39,1.05,2.09,2.61,1.57,6.78-1.04,9.39,0,0-13.05,10.44-22.44,26.09-6.79,11.48-9.39,22.97-8.35,34.45,0,2.09,.52,4.7,1.04,6.78,1.04,3.66-1.57,6.78-4.7,7.83-.52,.52-1.04,1.04-1.57,1.04Z"/><path class="cls-1" d="M97.6,78.28h0c-4.18,0-7.83-1.04-11.48-3.13-4.7-2.61-8.87-7.3-10.44-12.53h0c-1.05-3.65-1.57-6.78-1.57-9.39,0-1.57,0-2.61-.52-3.13,0-.52-1.04-1.56-4.7-3.13-2.61-1.05-4.18-4.18-3.65-7.3,.52-3.13,3.13-5.22,6.26-5.22,2.09,0,4.18-.52,6.78-1.57,4.18-1.04,8.87-2.09,14.61-2.09s10.96,1.57,15.66,4.18c5.22,3.13,9.39,7.83,10.96,13.57,1.57,5.74,1.04,12.52-2.09,17.74-3.65,7.3-11.48,12-19.83,12Zm-9.39-20.35c.52,2.09,2.61,4.18,4.7,5.22h0c1.57,1.05,3.13,1.57,5.22,1.57,3.65,0,6.79-2.09,8.35-4.7h0c1.56-2.61,1.56-5.22,1.04-7.83-.52-2.61-2.61-4.7-4.7-5.74-3.13-1.57-5.74-2.61-9.39-2.61-2.61,0-4.7,.53-7.31,1.05,1.04,2.61,1.04,4.7,1.57,7.3-.52,2.09-.52,3.66,.52,5.74Z"/><path class="cls-1" d="M135.69,105.94c-3.65,0-6.26-2.61-6.26-6.26,0-2.61-.52-4.7-1.04-6.78-4.18-16.7-19.31-19.83-19.83-19.83-3.65-.52-5.74-4.18-5.22-7.83,.52-3.65,4.18-5.74,7.83-5.22,1.04,0,23.49,5.22,29.75,29.75,.52,2.61,1.04,5.74,1.56,8.87,0,3.66-2.61,6.78-6.78,7.3,.52-.52,0,0,0,0Z"/><path class="cls-1" d="M134.65,268.78c-3.65,0-6.78-3.13-6.78-6.78V105.42c0-3.66,3.13-6.78,6.78-6.78s6.78,3.13,6.78,6.78v156.57c0,3.65-3.13,6.78-6.78,6.78Z"/><path class="cls-1" d="M211.37,302.18H57.93c-2.09,0-4.18-.52-6.26-1.04-5.74-2.09-10.44-6.26-12.52-12.01-2.09-5.74-1.57-12,1.56-17.22l63.15-109.07v-63.67c0-3.65,3.13-6.78,6.78-6.78h49.06c3.65,0,6.79,3.13,6.79,6.78v63.15l62.1,109.08c3.13,5.22,3.66,11.48,1.57,17.22-2.09,5.74-6.79,10.44-12.53,12-2.09,1.05-4.18,1.57-6.26,1.57ZM116.38,105.94v58.45c0,1.05-.52,2.09-1.04,3.13l-63.67,110.64c-1.56,2.61-1.04,5.22-.52,6.26,1.04,2.09,2.61,3.66,4.7,4.18,.52,0,1.57,.52,2.09,.52H211.37c1.04,0,1.57,0,2.09-.52,2.09-.52,3.65-2.09,4.7-4.18,.52-1.05,1.04-3.65-.52-6.26l-64.19-110.64c-.52-1.05-.52-2.09-.52-3.65v-57.93h-36.53Z"/><path class="cls-1" d="M261.47,301.66H6.79c-3.65,0-6.79-3.13-6.79-6.78s3.13-6.78,6.79-6.78h254.69c3.65,0,6.78,3.13,6.78,6.78-.52,3.65-3.65,6.78-6.78,6.78Z"/><path class="cls-1" d="M32.88,171.19c-10.96,0-19.83-8.88-19.83-19.84s8.87-19.83,19.83-19.83,19.83,8.87,19.83,19.83-8.87,19.84-19.83,19.84Zm0-26.1c-3.65,0-6.78,3.13-6.78,6.79s3.13,6.78,6.78,6.78,6.78-3.13,6.78-6.78c0-4.18-3.13-6.79-6.78-6.79Z"/><path class="cls-1" d="M235.38,236.42c-10.96,0-19.83-8.87-19.83-19.83s8.87-19.84,19.83-19.84,19.83,8.87,19.83,19.84c-.52,10.96-9.39,19.83-19.83,19.83Zm0-26.09c-3.65,0-6.78,3.13-6.78,6.78s3.13,6.78,6.78,6.78,6.79-3.13,6.79-6.78-3.65-6.78-6.79-6.78Z"/><path class="cls-1" d="M231.72,92.9c-12.53,0-22.96-10.44-22.96-22.96s10.44-22.97,22.96-22.97,22.96,10.44,22.96,22.97-10.44,22.96-22.96,22.96Zm0-32.88c-5.22,0-9.92,4.18-9.92,9.92,0,5.22,4.18,9.91,9.92,9.91,5.22,0,9.92-4.18,9.92-9.91s-4.18-9.92-9.92-9.92Z"/></g></g></g></svg>