<?xml version="1.0" encoding="UTF-8"?><svg id="Layer_1" xmlns="http://www.w3.org/2000/svg" viewBox="0 0 242.63 240.24"><defs><style>.cls-1{fill:#10d0a1;}</style></defs><g id="_907__Class__Education__People__School__Students"><g><path class="cls-1" d="M237.47,0H85.77c-2.78,0-5.16,2.36-5.16,5.1s2.38,5.1,5.16,5.1H232.7V155.45H85.77c-2.78,0-5.16,2.36-5.16,5.1s2.38,5.1,5.16,5.1H237.47c2.78,0,5.16-2.36,5.16-5.1V5.1c0-2.75-2.38-5.1-5.16-5.1Z"/><path class="cls-1" d="M50.43,155.06v-25.12c0-2.75-2.38-5.1-5.16-5.1s-5.16,2.35-5.16,5.1v25.12c0,2.75,2.38,5.1,5.16,5.1s5.16-2.36,5.16-5.1Z"/><path class="cls-1" d="M85.77,115.02c2.78,0,5.16-2.36,5.16-5.1v-14.92h45.67c2.78,0,5.16-2.36,5.16-5.1v-20.02c0-2.75-2.38-5.1-5.16-5.1h-57.58c-4.37-4.71-9.53-8.64-15.49-10.99,7.15-5.5,11.91-14.13,11.91-23.95C75.45,13.35,61.95,0,45.27,0S15.09,13.35,15.09,29.83c0,9.81,4.77,18.45,11.91,23.95C11.12,60.85,0,76.55,0,95v15.31c0,2.75,2.38,5.1,5.16,5.1h14.69v40.04c0,2.75,2.38,5.1,5.16,5.1s5.16-2.35,5.16-5.1v-60.45c0-2.75-2.38-5.1-5.16-5.1s-5.16,2.36-5.16,5.1v9.81H9.93v-9.81c0-19.23,15.88-34.94,35.34-34.94,10.72,0,21.05,4.71,27.8,12.95,.8,1.18,2.38,1.96,3.97,1.96h54.01v9.81h-45.67c-3.18,0-5.56,2.75-5.16,5.5,0,1.57,.4,3.14,.4,4.32v9.81h-9.93v-9.81c0-2.75-2.38-5.1-5.16-5.1s-5.16,2.35-5.16,5.1v60.06c0,2.75,2.38,5.1,5.16,5.1s5.16-2.36,5.16-5.1v-39.65h15.09ZM25.02,30.23c0-10.99,9.13-20.02,20.25-20.02s20.25,9.03,20.25,20.02-9.13,20.02-20.25,20.02-20.25-9.03-20.25-20.02Z"/><path class="cls-1" d="M95.7,140.14c0,2.75,2.38,5.1,5.16,5.1h106.42c2.78,0,5.16-2.36,5.16-5.1s-2.38-5.1-5.16-5.1H100.86c-2.78,0-5.16,2.36-5.16,5.1Z"/><rect class="cls-1" x="106.03" y="25.12" width="9.93" height="9.81"/><rect class="cls-1" x="141.37" y="25.12" width="9.93" height="9.81"/><rect class="cls-1" x="176.71" y="25.12" width="9.93" height="9.81"/><path class="cls-1" d="M44.87,203.74c3.58-3.53,5.56-8.24,5.56-13.74,0-10.99-9.13-20.02-20.25-20.02s-20.25,9.03-20.25,20.02c0,5.5,1.99,10.21,5.56,13.74-9.53,5.1-15.49,14.92-15.49,26.3v5.1c0,2.75,2.38,5.1,5.16,5.1H55.59c2.78,0,5.16-2.36,5.16-5.1v-5.1c-.4-10.99-6.75-20.8-15.88-26.3Zm-25.02-13.74c0-5.5,4.37-9.81,9.93-9.81s9.93,4.32,9.93,9.81-4.37,9.81-9.93,9.81c-5.16,.39-9.93-4.32-9.93-9.81Zm-9.93,40.04c0-10.99,9.13-20.02,20.25-20.02s20.25,9.03,20.25,20.02H9.93Z"/><path class="cls-1" d="M135.81,203.74c3.57-3.53,5.56-8.24,5.56-13.74,0-10.99-9.13-20.02-20.25-20.02s-20.25,9.03-20.25,20.02c0,5.5,1.98,10.21,5.56,13.74-9.53,5.1-15.88,14.92-15.88,26.3v5.1c0,2.75,2.38,5.1,5.16,5.1h50.43c2.78,0,5.16-2.36,5.16-5.1v-5.1c0-10.99-6.35-20.8-15.49-26.3Zm-24.62-13.74c0-5.5,4.37-9.81,9.93-9.81s9.93,4.32,9.93,9.81-4.37,9.81-9.93,9.81-9.93-4.32-9.93-9.81Zm-10.32,40.04c0-10.99,9.13-20.02,20.25-20.02s20.25,9.03,20.25,20.02h-40.5Z"/><path class="cls-1" d="M226.75,203.74c3.57-3.53,5.56-8.24,5.56-13.74,0-10.99-9.13-20.02-20.25-20.02s-20.25,9.03-20.25,20.02c0,5.5,1.99,10.21,5.56,13.74-9.53,5.1-15.49,14.92-15.49,26.3v5.1c0,2.75,2.38,5.1,5.16,5.1h50.43c2.78,0,5.16-2.36,5.16-5.1v-5.1c0-10.99-6.35-20.8-15.88-26.3Zm-24.62-13.74c0-5.5,4.37-9.81,9.93-9.81s9.93,4.32,9.93,9.81-4.37,9.81-9.93,9.81c-5.56,.39-9.93-4.32-9.93-9.81Zm-10.33,40.04c0-10.99,9.13-20.02,20.25-20.02s20.25,9.03,20.25,20.02h-40.51Z"/></g></g></svg>