<?xml version="1.0" encoding="utf-8"?>
<!-- Generator: Adobe Illustrator 26.3.1, SVG Export Plug-In . SVG Version: 6.00 Build 0)  -->
<svg version="1.1"
	 id="svg16" xmlns:inkscape="http://www.inkscape.org/namespaces/inkscape" xmlns:sodipodi="http://sodipodi.sourceforge.net/DTD/sodipodi-0.dtd" xmlns:svg="http://www.w3.org/2000/svg"
	 xmlns="http://www.w3.org/2000/svg" xmlns:xlink="http://www.w3.org/1999/xlink" x="0px" y="0px" viewBox="0 0 595.3 841.9"
	 style="enable-background:new 0 0 595.3 841.9;" xml:space="preserve">
<style type="text/css">
	.st0{fill-rule:evenodd;clip-rule:evenodd;fill:#FFEC00;}
	.st1{fill-rule:evenodd;clip-rule:evenodd;fill:#366E01;}
	.st2{fill-rule:evenodd;clip-rule:evenodd;fill:#4F9403;}
</style>
<sodipodi:namedview  bordercolor="#000000" borderopacity="0.25" id="namedview18" inkscape:deskcolor="#d1d1d1" inkscape:document-units="pt" inkscape:pagecheckerboard="0" inkscape:pageopacity="0.0" inkscape:showpageshadow="2" pagecolor="#ffffff">
	</sodipodi:namedview>
<path id="path4" class="st0" d="M297.6,271.2c82.2,0,148.9,67.1,148.9,149.8s-66.7,149.8-148.9,149.8S148.7,503.7,148.7,421
	C148.7,338.2,215.4,271.2,297.6,271.2L297.6,271.2z M297.6,283.3c75.6,0,136.8,61.6,136.8,137.6s-61.3,137.6-136.8,137.6
	S160.8,497,160.8,420.9S222.1,283.3,297.6,283.3L297.6,283.3z"/>
<path id="path6" class="st0" d="M312.4,530.6c0.4,3.1,0.8,5.1,1.1,5.8c26.8-16.7,44.6-37,53.3-60.9c8.4-20,6.6-44.1-5.4-72.3
	c6.4-12.7,9.9-23.3,10.5-31.8c1.5-24-9.8-47.2-33.9-69.6c-23.4,23.6-35.1,35.4-35.1,35.4c-16.1-15.5-28-27.3-35.7-35.4
	c-19.9,18.3-30.7,37.4-32.6,57.3c-2.2,17.4,1.1,32,9.9,43.8c-12.3,18.8-14.8,42-7.5,69.4c10.7,29.3,28.9,49.7,54.8,61.2
	c-1.5-4.9-2.2-7.3-2.2-7.3c-28.1-17.4-44.5-42-49.3-73.9c-1.4-16,2.6-32.9,11.9-50.8c10.5-15.7,27.1-34.3,49.9-55.8
	c22.6-20.2,34.2-32.8,37.7-35.7c19.8,24,28.1,43.6,25.1,58.8c-1.3,8.1-5.2,19.6-11.7,34.5c13.5,29.8,15.1,54.2,4.9,73
	C349.9,497.5,334.6,515.6,312.4,530.6L312.4,530.6z M249.6,398.3c-9-11.9-11.5-27.6-7.5-47c4.8-15.7,13-29.6,24.5-41.8
	c11.9,11.6,24,23.7,32.4,32.7C278.3,361.1,261.9,379.7,249.6,398.3L249.6,398.3z"/>
<path id="path8" class="st1" d="M249.6,398.3c14.1-20.7,30.6-39.4,49.4-56c-7.5-8.1-18.3-19-32.5-32.8
	c-14.7,16.3-23.2,32.2-25.4,46.3C238.3,376,242,390.7,249.6,398.3L249.6,398.3z"/>
<path id="path10" class="st2" d="M287.6,359.8c-41.2,38.5-67.8,81.8-30.2,136.1c9.1,13.1,17.4,21.8,31.9,29.6
	c-29.4-41-20.6-97.8,13.9-133.2c9.9-10.2,41.8-47,15.8-9.7c-15.6,22.3-36.3,34.4-37.8,66.9c-1.2,26.2,1,55.5,18.4,76.4
	c-6.4-49.4,20.5-79.7,49-116.6c1.6-2.1,3.3-3.9,4.7-6.2c7.2-11.5,12.2-26.3,12.4-40.1c0.1-6.7-1.6-13.2-4-19.2
	c-5.2-12.6-13.3-23.2-21.6-33.9C322.5,326.6,305,343.1,287.6,359.8L287.6,359.8z"/>
<path id="path12" class="st2" d="M312.4,530.6c18.9-28.1,24.4-58.2,16.6-90.2c12.7-18.1,21.2-29.6,25.5-34.6
	c10.8,23.8,13.2,45,7,63.7C350.8,496.4,334.5,516.8,312.4,530.6z"/>
<path id="path14" class="st2" d="M309,523.5c15.4-21.4,16.6-49.3,17-74.7c-0.9,1.5-21.5,36.5-21.6,36.6c-0.1,0.5,2.1,38.6,2.5,39.8
	L309,523.5z"/>
</svg>
